<svg xmlns="http://www.w3.org/2000/svg" width="30" height="30" viewBox="0 0 30 30"><defs><style>.a{fill:#d3f4d4;}.b{fill:none;stroke:#35a638;stroke-width:0.8px;}</style></defs><circle class="a" cx="15" cy="15" r="15"/><path class="b" d="M7.5,17.143A2.142,2.142,0,0,0,9.642,15H5.358A2.142,2.142,0,0,0,7.5,17.143Zm7.212-5.013c-.647-.7-1.857-1.741-1.857-5.166a5.287,5.287,0,0,0-4.284-5.2v-.7a1.071,1.071,0,1,0-2.142,0v.7a5.287,5.287,0,0,0-4.284,5.2c0,3.425-1.21,4.471-1.857,5.166A1.046,1.046,0,0,0,0,12.857a1.072,1.072,0,0,0,1.075,1.071h12.85A1.072,1.072,0,0,0,15,12.857,1.046,1.046,0,0,0,14.712,12.13Z" transform="translate(7.5 6)"/></svg>