<svg xmlns="http://www.w3.org/2000/svg" width="40" height="40" viewBox="0 0 40 40"><defs><style>.a{fill:#eee;}.b{fill:none;stroke:#6c6c6c;}</style></defs><circle class="a" cx="20" cy="20" r="20"/><path class="b" d="M10,23a2.866,2.866,0,0,0,2.856-2.875H7.144A2.866,2.866,0,0,0,10,23Zm9.616-6.725c-.862-.933-2.476-2.335-2.476-6.931a7.083,7.083,0,0,0-5.712-6.97V1.438a1.428,1.428,0,1,0-2.855,0v.936a7.083,7.083,0,0,0-5.712,6.97c0,4.6-1.614,6-2.476,6.931A1.408,1.408,0,0,0,0,17.25a1.434,1.434,0,0,0,1.433,1.438H18.567A1.434,1.434,0,0,0,20,17.25,1.408,1.408,0,0,0,19.616,16.275Z" transform="translate(10 8)"/></svg>