<svg xmlns="http://www.w3.org/2000/svg" width="30" height="30" viewBox="0 0 30 30"><defs><style>.a{fill:#fff;}</style></defs><g transform="translate(-808 -136.375)"><path class="a" d="M23.295,21.705,19.589,18l3.705-3.705a1.124,1.124,0,0,0-1.589-1.589L18,16.411l-3.705-3.705a1.124,1.124,0,0,0-1.589,1.589L16.411,18l-3.705,3.705a1.086,1.086,0,0,0,0,1.589,1.116,1.116,0,0,0,1.589,0L18,19.589l3.705,3.705a1.129,1.129,0,0,0,1.589,0A1.116,1.116,0,0,0,23.295,21.705Z" transform="translate(805 133.375)"/><path class="a" d="M18.375,5.394a12.976,12.976,0,1,1-9.18,3.8,12.895,12.895,0,0,1,9.18-3.8m0-2.019a15,15,0,1,0,15,15,15,15,0,0,0-15-15Z" transform="translate(804.625 133)"/></g></svg>